<svg width="100" height="100" viewBox="0 0 100 100" xmlns="http://www.w3.org/2000/svg">
  <!-- 背景圆形 -->
  <circle cx="50" cy="50" r="50" fill="#D946EF" />
  
  <!-- 女性用户图标 -->
  <path d="M50 45C56.0751 45 61 40.0751 61 34C61 27.9249 56.0751 23 50 23C43.9249 23 39 27.9249 39 34C39 40.0751 43.9249 45 50 45Z" fill="white"/>
  <!-- 长发轮廓 -->
  <path d="M35 34C35 40 38 50 30 62C32 64 42 50 42 45C42 40 41 37 41 34C41 31 35 28 35 34Z" fill="white"/>
  <path d="M65 34C65 40 62 50 70 62C68 64 58 50 58 45C58 40 59 37 59 34C59 31 65 28 65 34Z" fill="white"/>
  <!-- 服装 -->
  <path d="M40 73C40 60 45 55 50 55C55 55 60 60 60 73V77H40V73Z" fill="white"/>
</svg> 