<svg width="100" height="100" viewBox="0 0 100 100" xmlns="http://www.w3.org/2000/svg">
  <!-- 背景圆形 -->
  <circle cx="50" cy="50" r="50" fill="#0284C7" />
  
  <!-- 用户图标 -->
  <path d="M50 43C56.0751 43 61 38.0751 61 32C61 25.9249 56.0751 21 50 21C43.9249 21 39 25.9249 39 32C39 38.0751 43.9249 43 50 43Z" fill="white"/>
  
  <!-- 眼镜 -->
  <path d="M40 30 L44 30 C45 30 45 32 44 32 L40 32 C39 32 39 30 40 30 Z" fill="#0F172A"/>
  <path d="M60 30 L56 30 C55 30 55 32 56 32 L60 32 C61 32 61 30 60 30 Z" fill="#0F172A"/>
  <path d="M44 31 L56 31" stroke="#0F172A" stroke-width="1.5"/>
  
  <!-- 西装 -->
  <path d="M30 64C30 54.0589 38.9543 46 50 46C61.0457 46 70 54.0589 70 64V77H30V64Z" fill="white"/>
  
  <!-- 领带 -->
  <path d="M46 43L50 47L54 43V77H46V43Z" fill="#0F172A"/>
</svg> 